<?xml version="1.0" encoding="UTF-8" standalone="no"?>
<!-- Generator: Adobe Illustrator 14.0.0, SVG Export Plug-In  -->

<svg
   xmlns:dc="http://purl.org/dc/elements/1.1/"
   xmlns:cc="http://creativecommons.org/ns#"
   xmlns:rdf="http://www.w3.org/1999/02/22-rdf-syntax-ns#"
   xmlns:svg="http://www.w3.org/2000/svg"
   xmlns="http://www.w3.org/2000/svg"
   xmlns:sodipodi="http://sodipodi.sourceforge.net/DTD/sodipodi-0.dtd"
   xmlns:inkscape="http://www.inkscape.org/namespaces/inkscape"
   version="1.1"
   x="0px"
   y="0px"
   width="210px"
   height="210px"
   viewBox="0 -71.767 210 210"
   enable-background="new 0 -71.767 210 210"
   xml:space="preserve"
   id="svg2"
   inkscape:version="0.91 r13725"
   sodipodi:docname="Early-Cyrillic-letter-Azuмммммммммммммммммммммммммммм.svg"><metadata
     id="metadata14"><rdf:RDF><cc:Work
         rdf:about=""><dc:format>image/svg+xml</dc:format><dc:type
           rdf:resource="http://purl.org/dc/dcmitype/StillImage" /><dc:title></dc:title></cc:Work></rdf:RDF></metadata><sodipodi:namedview
     pagecolor="#ffffff"
     bordercolor="#666666"
     borderopacity="1"
     objecttolerance="10"
     gridtolerance="10"
     guidetolerance="10"
     inkscape:pageopacity="0"
     inkscape:pageshadow="2"
     inkscape:window-width="1366"
     inkscape:window-height="705"
     id="namedview12"
     showgrid="false"
     inkscape:zoom="2.2476191"
     inkscape:cx="64.025877"
     inkscape:cy="106.2206"
     inkscape:window-x="-4"
     inkscape:window-y="-4"
     inkscape:window-maximized="1"
     inkscape:current-layer="text2931-1" /><defs
     id="defs4" /><line
     fill="none"
     stroke="#7B94FF"
     x1="0"
     y1="0.5"
     x2="210"
     y2="0.5"
     id="line6" /><line
     fill="none"
     stroke="#7B94FF"
     x1="0"
     y1="75.46"
     x2="210"
     y2="75.46"
     id="line8" /><g
     style="font-style:normal;font-weight:normal;font-size:20px;font-family:'Bitstream Vera Sans';text-align:start;text-anchor:start;fill:#000000;fill-opacity:1;stroke:none;stroke-width:1px;stroke-linecap:butt;stroke-linejoin:miter;stroke-opacity:1"
     id="text2931-1"><path
       d="m 79.55,0.53985718 12.58,0 q 3.23,0 3.91,1.19000002 0.68,1.19 1.36,7.65 0.68,6.2899998 2.72,15.9799998 2.04,9.52 7.14,29.24 1.19,-8.33 4.25,-16.66 1.7,-4.76 4.08,-9.52 1.36,-2.89 2.72,-6.46 1.53,-3.74 1.53,-5.95 0,-5.78 -0.68,-9.5199998 -0.51,-3.91 -0.51,-5.1 0,-0.85000002 1.87,-0.85000002 l 1.7,0 13.26,0 q 4.42,0 4.76,2.55000002 2.21,24.8199998 5.95,38.2499998 3.23,11.39 10.37,26.69 0.51,1.36 0.85,2.55 0.51,1.19 0.51,2.55 0,1.36 -0.51,1.87 -0.51,0.51 -3.06,0.51 l -10.88,0 q -5.78,0 -12.07,-17.51 -4.59,-12.58 -6.63,-25.16 l -1.36,-6.63 q -4.76,10.37 -7.99,22.1 -3.23,11.56 -3.23,19.89 l 0,3.4 q 0.17,0.85 0,2.38 -0.17,1.53 -1.36,1.53 l -12.41,0 q -2.72,0 -3.4,-0.51 -1.87,-1.36 -3.74,-6.97 -2.89,-9.35 -5.1,-18.53 -2.89,-12.07 -6.29,-29.41 -6.63,8.33 -10.54,18.19 -3.91,9.86 -3.91,18.87 0,3.4 1.02,7.14 0.51,2.04 1.87,5.61 0.51,1.53 1.02,2.89 0.51,1.36 0.51,1.7 0,1.02 -1.7,1.02 l -13.94,0 q -1.53,0 -2.21,-2.04 -0.51,-2.04 -0.51,-5.1 0,-8.5 5.27,-20.23 3.57,-7.82 8.84,-16.15 4.42,-7.14 6.12,-10.37 4.08,-7.65 4.08,-12.9199998 -0.17,-1.02 -0.17,-1.7 -0.34,-2.04 -0.34,-2.89 0,-0.68 0.34,-1.7 0.34,-1.02 0.85,-1.36 0.68,-0.51000002 3.06,-0.51000002 z"
       style="font-style:normal;font-variant:normal;font-weight:bold;font-stretch:normal;font-size:170px;font-family:CyrillicOld;-inkscape-font-specification:'CyrillicOld Bold';fill:#000000"
       id="path4143"
       inkscape:connector-curvature="0" /></g></svg>