<?xml version="1.0" encoding="UTF-8" standalone="no"?>
<svg
   xmlns:dc="http://purl.org/dc/elements/1.1/"
   xmlns:cc="http://creativecommons.org/ns#"
   xmlns:rdf="http://www.w3.org/1999/02/22-rdf-syntax-ns#"
   xmlns:svg="http://www.w3.org/2000/svg"
   xmlns="http://www.w3.org/2000/svg"
   id="svg2"
   xml:space="preserve"
   enable-background="new 0 -71.767 210 210"
   viewBox="0 -71.767 210 210"
   height="210px"
   width="210px"
   y="0px"
   x="0px"
   version="1.1"><metadata
     id="metadata14"><rdf:RDF><cc:Work
         rdf:about=""><dc:format>image/svg+xml</dc:format><dc:type
           rdf:resource="http://purl.org/dc/dcmitype/StillImage" /><dc:title></dc:title></cc:Work></rdf:RDF></metadata><defs
     id="defs4" /><line
     id="line6"
     y2="0.5"
     x2="210"
     y1="0.5"
     x1="0"
     stroke="#7B94FF"
     fill="none" /><line
     id="line8"
     y2="75.46"
     x2="210"
     y1="75.46"
     x1="0"
     stroke="#7B94FF"
     fill="none" /><g
     id="text2931-5"
     style="font-style:normal;font-weight:normal;font-size:20px;font-family:'Bitstream Vera Sans';text-align:start;text-anchor:start;fill:#000000;fill-opacity:1;stroke:none;stroke-width:1px;stroke-linecap:butt;stroke-linejoin:miter;stroke-opacity:1"><g
       transform="translate(-256.98,2.512649)"
       id="g4152" /><g
       transform="translate(-12.5,0.580778)"
       id="text2931-2"
       style="font-style:normal;font-weight:normal;font-size:20px;font-family:'Bitstream Vera Sans';text-align:start;text-anchor:start;fill:#ffaaaa;fill-opacity:1;stroke:none;stroke-width:1px;stroke-linecap:butt;stroke-linejoin:miter;stroke-opacity:1" /><path
       id="path4930"
       d="m 76.609374,0.738861 c -2.153333,0 -3.683177,1.756198 -4.589844,5.269532 -0.906667,3.4 -1.359375,12.29612 -1.359375,26.689449 0,2.72 0.113177,6.91341 0.339844,12.58008 0.34,5.66667 0.509765,10.31474 0.509765,13.94141 l 0.679688,10.19922 c 0,3.17333 0.681016,5.15588 2.041015,5.94922 0.453333,0.22666 1.302162,0.33984 2.548829,0.33984 l 9.691406,0 c 3.173333,0 5.099297,-0.33953 5.779297,-1.01953 0.68,-0.79333 0.906354,-1.98365 0.679687,-3.57031 -1.133333,-8.04667 -1.868984,-14.33581 -2.208984,-18.86915 -0.34,-4.53333 -0.509766,-9.06627 -0.509766,-13.5996 l 0,-6.46094 c 0,-3.74527 0.115055,-6.987283 0.335938,-9.775392 L 117.4746,38.484952 c 0.12769,14.30517 0.44545,23.71113 0.95508,28.21289 0.79333,6.00667 2.37977,9.00977 4.75977,9.00977 l 9.52148,0 c 3.17333,0 5.0993,-0.33953 5.7793,-1.01953 0.68,-0.79333 0.90636,-1.98365 0.67969,-3.57031 -1.7,-12.12667 -2.54883,-25.10302 -2.54883,-38.92969 0,-4.986669 0.11317,-8.840549 0.33984,-11.560549 0.34,-2.833333 0.90589,-6.458906 1.69922,-10.878906 l 0.67969,-6.630859 c 0,-1.586667 -0.67907,-2.378907 -2.03907,-2.378907 l -14.11132,0 c -2.49333,0 -4.02318,0.79224 -4.58985,2.378907 -0.56667,1.586666 -0.84961,5.780078 -0.84961,12.580078 l -0.33983,6.800781 c 0,3.494883 0.024,6.402215 0.0391,9.509765 L 91.306639,16.354096 c 0.306411,-2.161204 0.59383,-4.22867 0.94336,-6.605469 l 0.849609,-6.630859 c 0,-1.586667 -0.735651,-2.378907 -2.208984,-2.378907 z"
       style="font-style:normal;font-variant:normal;font-weight:bold;font-stretch:normal;font-size:170px;font-family:CyrillicOld;-inkscape-font-specification:'CyrillicOld Bold';text-align:start;text-anchor:start;fill:#000000;fill-opacity:1;stroke:none;stroke-width:1px;stroke-linecap:butt;stroke-linejoin:miter;stroke-opacity:1" /></g></svg>