<svg width="210" height="210" xmlns="http://www.w3.org/2000/svg" xmlns:undefined="http://www.inkscape.org/namespaces/inkscape" xmlns:undefined="http://sodipodi.sourceforge.net/DTD/sodipodi-0.dtd" xml:space="preserve" enable-background="new 0 -71.767 210 210" version="1.1">
 <metadata id="metadata14">image/svg+xml</metadata>

 <g>
  <title>Layer 1</title>
  <line stroke-width="1.22474" stroke="#7b94ff" fill="none" id="line8" y2="75.46" x2="315" y1="75.46" x1="0"/>
  <g stroke-width="1px" fill="#000000" text-anchor="start" font-family="'Bitstream Vera Sans'" font-size="medium" font-weight="normal" font-style="normal" id="g4152"/>
  <g stroke-width="1px" fill="#ffaaaa" text-anchor="start" font-family="'Bitstream Vera Sans'" font-size="20px" font-weight="normal" font-style="normal" id="text2931-2"/>
  <line stroke-width="1.22474" stroke="#7b94ff" fill="none" id="line6" y2="0.5" x2="315" y1="0.5" x1="0"/>
  <path stroke-width="1px" fill="#000000"   id="path5294" d="m134.35938,-1.06387c-5.66667,0 -10.65231,2.49185 -14.95898,7.47851c-4.19333,4.87334 -7.5945,12.46792 -10.20117,22.78125c-2.49333,10.2 -4.13635,18.35852 -4.92969,24.47852c-0.67999,6.00666 -1.01953,11.61674 -1.01953,16.83007l-5.09961,0l-0.6797,-5.77929c-0.45333,-3.96667 -0.96458,-7.93373 -1.53125,-11.90039c-0.56666,-4.08 -1.13255,-7.99047 -1.69921,-11.73047l-1.87109,-10.87891c-0.68,-4.42 -1.75518,-10.65255 -3.22852,-18.69922c-0.90667,-4.64666 -1.5311,-7.59513 -1.8711,-8.84179c-0.45332,-1.02 -0.90604,-1.58589 -1.35937,-1.69922l-3.74024,0l-5.43945,0l-8.16016,-0.33984c-1.13332,-0.22667 -1.81435,-0.22667 -2.04102,0c-1.02,0.45333 -1.52929,1.0758 -1.52929,1.86914c0,0.90666 0.11317,1.87062 0.33984,2.89062c0.34,1.02 1.07761,3.11768 2.21094,6.29102c2.94667,8.5 5.5517,18.64302 7.81837,30.42968c2.26667,11.78667 3.40038,20.90914 3.40038,27.36914l0,3.57032c0,1.7 0.11318,2.66396 0.33985,2.89063c0.22666,0.11333 1.13403,0.16991 2.7207,0.16991l20.62891,0c-0.0248,1.70634 -0.06459,3.44759 -0.13281,5.26367c-0.41144,10.94757 -1.38876,19.61563 -2.93359,26.00586c-0.38492,1.75013 -0.67572,3.27937 -0.875,4.58595c-0.0944,1.26358 0.0291,2.3154 0.37305,3.1543c0.3869,0.94377 1.07637,1.57995 2.06836,1.9082c1.13985,0.39013 2.70682,0.17618 4.69922,-0.64063c2.93617,-1.2037 5.57286,-4.10527 5.54297,-8.88672c-0.17035,-27.26303 -1.82512,-41.61955 2.58984,-67.60155c0.8304,-4.88691 2.09503,-8.89698 3.56836,-12.07032c2.60667,-5.66667 6.12102,-8.5 10.54102,-8.5c3.06001,0 5.09915,1.30349 6.11914,3.91015l3.91016,0l0,-6.45898c0,-4.76 0.68102,-7.70651 2.04102,-8.83984c1.36,-1.13334 2.03906,-3.00467 2.03906,-5.61133c0,-0.90667 -0.62247,-1.69891 -1.86914,-2.37891c-1.13333,-0.68 -3.06125,-1.01953 -5.78125,-1.01953z"/>
 </g>
</svg>